<svg width="20" height="15" viewBox="0 0 20 15" fill="none" xmlns="http://www.w3.org/2000/svg">
<path d="M17 4L15 4L15 7L12 7L12 9L15 9L15 12L17 12L17 9L20 9L20 7L17 7L17 4ZM2 4C2 6.28 3.72 8 6 8C8.28 8 10 6.28 10 4C10 1.72 8.28 4.26367e-09 6 3.08962e-09C3.72 1.91556e-09 2 1.72 2 4ZM8 4C8 5.178 7.178 6 6 6C4.822 6 4 5.178 4 4C4 2.822 4.822 2 6 2C7.178 2 8 2.822 8 4ZM2 14C2 12.346 3.346 11 5 11L7 11C8.654 11 10 12.346 10 14L10 15L12 15L12 14C12 11.243 9.757 9 7 9L5 9C2.243 9 5.38181e-09 11.243 6.70153e-09 14L7.18021e-09 15L2 15L2 14Z" fill="#121625"/>
</svg>
