<svg width="20" height="20" viewBox="0 0 20 20" fill="none" xmlns="http://www.w3.org/2000/svg">
<path d="M10 5.14936e-09C4.486 2.31e-09 1.71798e-09 3.589 3.82945e-09 8C5.22145e-09 10.908 1.898 13.515 5 14.934L5 20L10.34 15.995C15.697 15.852 20 12.32 20 8C20 3.589 15.514 7.98872e-09 10 5.14936e-09ZM10 14L9.667 14L7 16L7 13.583L6.359 13.336C3.67 12.301 2 10.256 2 8C2 4.691 5.589 2 10 2C14.411 2 18 4.691 18 8C18 11.309 14.411 14 10 14Z" fill="#121625"/>
<path d="M11 4L9 4L9 7L6 7L6 9L9 9L9 12L11 12L11 9L14 9L14 7L11 7L11 4Z" fill="#121625"/>
</svg>
