<svg width="20" height="19" viewBox="0 0 20 19" fill="none" xmlns="http://www.w3.org/2000/svg">
<path d="M18 -4.27361e-08L4.693 -1.11422e-08C3.864 -9.17401e-09 3.112 0.521 2.82 1.298L0.063 8.649C0.021 8.761 -1.37539e-08 8.88 -1.39397e-08 9L-1.70374e-08 11C-1.87458e-08 12.103 0.897 13 2 13L7.612 13L6.49 16.367C6.287 16.975 6.389 17.649 6.764 18.169C7.14 18.689 7.746 19 8.388 19L10 19C10.297 19 10.578 18.868 10.769 18.64L15.469 13L18 13C19.103 13 20 12.103 20 11L20 2C20 0.897 19.103 -4.53549e-08 18 -4.27361e-08ZM9.531 17L8.386 17L9.948 12.316C10.051 12.011 9.999 11.676 9.811 11.415C9.623 11.154 9.321 11 9 11L2 11L2 9.181L4.693 2L14 2L14 11.638L9.531 17ZM16 11L16 2L18 2L18.001 11L16 11Z" fill="#EC555E"/>
</svg>
