<svg width="24" height="25" viewBox="0 0 24 25" fill="none" xmlns="http://www.w3.org/2000/svg">
<path d="M20.294 8.792L15.994 13.084L14.702 11.792L13.288 13.206L15.994 15.91L21.706 10.208L20.294 8.792ZM4 8.5C4 10.78 5.72 12.5 8 12.5C10.28 12.5 12 10.78 12 8.5C12 6.22 10.28 4.5 8 4.5C5.72 4.5 4 6.22 4 8.5ZM10 8.5C10 9.678 9.178 10.5 8 10.5C6.822 10.5 6 9.678 6 8.5C6 7.322 6.822 6.5 8 6.5C9.178 6.5 10 7.322 10 8.5ZM4 18.5C4 16.846 5.346 15.5 7 15.5L9 15.5C10.654 15.5 12 16.846 12 18.5L12 19.5L14 19.5L14 18.5C14 15.743 11.757 13.5 9 13.5L7 13.5C4.243 13.5 2 15.743 2 18.5L2 19.5L4 19.5L4 18.5Z" fill="#32D5A4"/>
</svg>
