<svg width="20" height="21" viewBox="0 0 20 21" fill="none" xmlns="http://www.w3.org/2000/svg">
<path d="M18 0.5L2 0.5C0.897 0.5 4.29377e-10 1.397 9.57361e-10 2.5L6.70153e-09 14.5C7.22951e-09 15.603 0.897 16.5 2 16.5L5 16.5L5 20.267L11.277 16.5L18 16.5C19.103 16.5 20 15.603 20 14.5L20 2.5C20 1.397 19.103 0.5 18 0.5ZM18 14.5L10.723 14.5L7 16.733L7 14.5L2 14.5L2 2.5L18 2.5L18 14.5Z" fill="white"/>
<path d="M9 12.5L11 12.5L11 9.5L14 9.5L14 7.5L11 7.5L11 4.5L9 4.5L9 7.5L6 7.5L6 9.5L9 9.5L9 12.5Z" fill="white"/>
</svg>
