<svg width="14" height="21" viewBox="0 0 14 21" fill="none" xmlns="http://www.w3.org/2000/svg">
<path d="M7 20.5L8 18.5L8 15.5L13 15.5C13.553 15.5 14 15.053 14 14.5L14 12.914C14 12.388 13.786 11.872 13.414 11.5L12 10.086L12 6.5C12.553 6.5 13 6.053 13 5.5L13 2.5C13 1.397 12.103 0.5 11 0.5L3 0.5C1.897 0.5 1 1.397 1 2.5L1 5.5C1 6.053 1.448 6.5 2 6.5L2 10.086L0.586 11.5C0.213 11.872 -1.61785e-09 12.388 -1.68944e-09 12.914L-1.90528e-09 14.5C-1.98053e-09 15.053 0.448 15.5 1 15.5L6 15.5L6 18.5L7 20.5ZM3 2.5L11 2.5L11 4.5L3 4.5L3 2.5ZM2 12.914L3.707 11.207C3.895 11.02 4 10.766 4 10.5L4 6.5L10 6.5L10 10.5C10 10.766 10.105 11.02 10.293 11.207L12 12.914L12 13.5L2 13.5L2 12.914Z" fill="#121625"/>
</svg>
